{
  "accessors": [
    {
      "bufferView": 2,
      "componentType": 5126,
      "count": 65532,
      "max": [
        -0.011259909719228745,
        18.148298263549805,
        -3.2805418968200684
      ],
      "min": [
        -2.3283824920654297,
        16.045967102050781,
        -5.5871906280517578
      ],
      "type": "VEC3"
    },
    {
      "bufferView": 2,
      "byteOffset": 786384,
      "componentType": 5126,
      "count": 65532,
      "max": [
        0.99958616495132446,
        0.99886417388916016,
        0.99999219179153442
      ],
      "min": [
        -0.99957901239395142,
        -0.9999765157699585,
        -0.9938889741897583
      ],
      "type": "VEC3"
    },
    {
      "bufferView": 3,
      "componentType": 5126,
      "count": 65532,
      "max": [
        0.99215686321258545,
        0.99215686321258545,
        0.98823529481887817,
        1
      ],
      "min": [
        0.16862745583057404,
        0.12941177189350128,
        0.10196078568696976,
        1
      ],
      "type": "VEC4"
    },
    {
      "bufferView": 1,
      "componentType": 5126,
      "count": 65532,
      "max": [
        0.99889099597930908,
        0.91312599182128906
      ],
      "min": [
        0,
        0.00031500001205131412
      ],
      "type": "VEC2"
    },
    {
      "bufferView": 0,
      "componentType": 5125,
      "count": 367662,
      "max": [
        65531
      ],
      "min": [
        0
      ],
      "type": "SCALAR"
    },
    {
      "bufferView": 2,
      "byteOffset": 1572768,
      "componentType": 5126,
      "count": 65532,
      "max": [
        -0.090554952621459961,
        18.420354843139648,
        -3.5515766143798828
      ],
      "min": [
        -2.6802999973297119,
        16.113929748535156,
        -5.7542963027954102
      ],
      "type": "VEC3"
    },
    {
      "bufferView": 2,
      "byteOffset": 2359152,
      "componentType": 5126,
      "count": 65532,
      "max": [
        0.9817659854888916,
        0.99990981817245483,
        0.99990940093994141
      ],
      "min": [
        -0.99996435642242432,
        -0.99965351819992065,
        -0.9998590350151062
      ],
      "type": "VEC3"
    },
    {
      "bufferView": 3,
      "byteOffset": 1048512,
      "componentType": 5126,
      "count": 65532,
      "max": [
        0.9686274528503418,
        0.93333333730697632,
        0.81176471710205078,
        1
      ],
      "min": [
        0.066666670143604279,
        0.047058824449777603,
        0.031372550874948502,
        1
      ],
      "type": "VEC4"
    },
    {
      "bufferView": 1,
      "byteOffset": 524256,
      "componentType": 5126,
      "count": 65532,
      "max": [
        1,
        0.89019900560379028
      ],
      "min": [
        0.0073739998042583466,
        0.00046800001291558146
      ],
      "type": "VEC2"
    },
    {
      "bufferView": 0,
      "byteOffset": 1470648,
      "componentType": 5125,
      "count": 338259,
      "max": [
        65531
      ],
      "min": [
        0
      ],
      "type": "SCALAR"
    },
    {
      "bufferView": 2,
      "byteOffset": 3145536,
      "componentType": 5126,
      "count": 65532,
      "max": [
        -0.60130482912063599,
        18.877655029296875,
        -3.976179838180542
      ],
      "min": [
        -2.6769013404846191,
        16.4298095703125,
        -6.9643087387084961
      ],
      "type": "VEC3"
    },
    {
      "bufferView": 2,
      "byteOffset": 3931920,
      "componentType": 5126,
      "count": 65532,
      "max": [
        0.99999761581420898,
        0.99979507923126221,
        0.99981230497360229
      ],
      "min": [
        -0.99996435642242432,
        -0.99781656265258789,
        -0.99940335750579834
      ],
      "type": "VEC3"
    },
    {
      "bufferView": 3,
      "byteOffset": 2097024,
      "componentType": 5126,
      "count": 65532,
      "max": [
        0.99607843160629272,
        0.99607843160629272,
        0.99607843160629272,
        1
      ],
      "min": [
        0.070588238537311554,
        0.050980392843484879,
        0.039215687662363052,
        1
      ],
      "type": "VEC4"
    },
    {
      "bufferView": 1,
      "byteOffset": 1048512,
      "componentType": 5126,
      "count": 65532,
      "max": [
        0.97964799404144287,
        0.74292701482772827
      ],
      "min": [
        0.00026900001103058457,
        0.034070998430252075
      ],
      "type": "VEC2"
    },
    {
      "bufferView": 0,
      "byteOffset": 2823684,
      "componentType": 5125,
      "count": 330462,
      "max": [
        65531
      ],
      "min": [
        0
      ],
      "type": "SCALAR"
    },
    {
      "bufferView": 2,
      "byteOffset": 4718304,
      "componentType": 5126,
      "count": 55209,
      "max": [
        -0.91508227586746216,
        18.877103805541992,
        -4.7910037040710449
      ],
      "min": [
        -2.6802999973297119,
        16.812210083007812,
        -6.9691014289855957
      ],
      "type": "VEC3"
    },
    {
      "bufferView": 2,
      "byteOffset": 5380812,
      "componentType": 5126,
      "count": 55209,
      "max": [
        0.99996954202651978,
        0.99979788064956665,
        0.99831092357635498
      ],
      "min": [
        -0.9999510645866394,
        -0.99999815225601196,
        -0.9999890923500061
      ],
      "type": "VEC3"
    },
    {
      "bufferView": 3,
      "byteOffset": 3145536,
      "componentType": 5126,
      "count": 55209,
      "max": [
        0.99607843160629272,
        0.99607843160629272,
        0.99607843160629272,
        1
      ],
      "min": [
        0.14117647707462311,
        0.11372549086809158,
        0.090196080505847931,
        1
      ],
      "type": "VEC4"
    },
    {
      "bufferView": 1,
      "byteOffset": 1572768,
      "componentType": 5126,
      "count": 55209,
      "max": [
        0.95156002044677734,
        0.89828002452850342
      ],
      "min": [
        0,
        0.011238999664783478
      ],
      "type": "VEC2"
    },
    {
      "bufferView": 0,
      "byteOffset": 4145532,
      "componentType": 5125,
      "count": 267984,
      "max": [
        55208
      ],
      "min": [
        0
      ],
      "type": "SCALAR"
    }
  ],
  "asset": {
    "extras": {
      "author": "annaispascual (https://sketchfab.com/annaispascual)",
      "license": "CC-BY-NC-ND-4.0 (http://creativecommons.org/licenses/by-nc-nd/4.0/)",
      "source": "https://sketchfab.com/3d-models/moai-5a09b684a4f8474981bdbfee37edb4fa",
      "title": "Moai"
    },
    "generator": "Sketchfab-8.33.0",
    "version": "2.0"
  },
  "bufferViews": [
    {
      "buffer": 0,
      "byteLength": 5217468,
      "byteOffset": 0,
      "name": "floatBufferViews",
      "target": 34963
    },
    {
      "buffer": 0,
      "byteLength": 2014440,
      "byteOffset": 5217468,
      "byteStride": 8,
      "name": "floatBufferViews",
      "target": 34962
    },
    {
      "buffer": 0,
      "byteLength": 6043320,
      "byteOffset": 7231908,
      "byteStride": 12,
      "name": "floatBufferViews",
      "target": 34962
    },
    {
      "buffer": 0,
      "byteLength": 4028880,
      "byteOffset": 13275228,
      "byteStride": 16,
      "name": "floatBufferViews",
      "target": 34962
    }
  ],
  "buffers": [
    {
      "byteLength": 17304108,
      "uri": "scene.bin"
    }
  ],
  "extensionsUsed": [
    "KHR_materials_unlit"
  ],
  "images": [
    {
      "uri": "textures/parasketch.1001_baseColor.jpeg"
    }
  ],
  "materials": [
    {
      "doubleSided": true,
      "emissiveFactor": [
        0,
        0,
        0
      ],
      "extensions": {
        "KHR_materials_unlit": {}
      },
      "name": "parasketch.1001",
      "pbrMetallicRoughness": {
        "baseColorFactor": [
          1,
          1,
          1,
          1
        ],
        "baseColorTexture": {
          "index": 0,
          "texCoord": 0
        },
        "metallicFactor": 0,
        "roughnessFactor": 1
      }
    }
  ],
  "meshes": [
    {
      "primitives": [
        {
          "attributes": {
            "COLOR_0": 2,
            "NORMAL": 1,
            "POSITION": 0,
            "TEXCOORD_0": 3
          },
          "indices": 4,
          "material": 0,
          "mode": 4
        }
      ]
    },
    {
      "primitives": [
        {
          "attributes": {
            "COLOR_0": 7,
            "NORMAL": 6,
            "POSITION": 5,
            "TEXCOORD_0": 8
          },
          "indices": 9,
          "material": 0,
          "mode": 4
        }
      ]
    },
    {
      "primitives": [
        {
          "attributes": {
            "COLOR_0": 12,
            "NORMAL": 11,
            "POSITION": 10,
            "TEXCOORD_0": 13
          },
          "indices": 14,
          "material": 0,
          "mode": 4
        }
      ]
    },
    {
      "primitives": [
        {
          "attributes": {
            "COLOR_0": 17,
            "NORMAL": 16,
            "POSITION": 15,
            "TEXCOORD_0": 18
          },
          "indices": 19,
          "material": 0,
          "mode": 4
        }
      ]
    }
  ],
  "nodes": [
    {
      "children": [
        1
      ],
      "name": "RootNode (gltf orientation matrix)",
      "rotation": [
        -0.70710678118654746,
        -0,
        -0,
        0.70710678118654757
      ]
    },
    {
      "children": [
        2
      ],
      "name": "RootNode (model correction matrix)"
    },
    {
      "children": [
        3,
        4,
        5,
        6
      ],
      "name": "parasketch.obj.cleaner.materialmerger.gles"
    },
    {
      "mesh": 0,
      "name": ""
    },
    {
      "mesh": 1,
      "name": ""
    },
    {
      "mesh": 2,
      "name": ""
    },
    {
      "mesh": 3,
      "name": ""
    }
  ],
  "samplers": [
    {
      "magFilter": 9729,
      "minFilter": 9987,
      "wrapS": 10497,
      "wrapT": 10497
    }
  ],
  "scene": 0,
  "scenes": [
    {
      "name": "OSG_Scene",
      "nodes": [
        0
      ]
    }
  ],
  "textures": [
    {
      "sampler": 0,
      "source": 0
    }
  ]
}

